<svg version="1.2" xmlns="http://www.w3.org/2000/svg" viewBox="0 0 2750 1908" width="2750"
                    height="1908">
                    <style>
                        .s0 {
                            opacity: 0;
                            fill: #f7b34b;
                            transition: opacity 0.3s ease;
                            cursor: pointer;
                        }
                    </style>
                    <path id="fire" data-title="Fire Block" data-desc="18 Units Available" data-block="fire"
                        data-slidecategory="fire" class="s0"
                        d="m1618 1443l650 334 183-94-106-64-1-62 32-13-9-31-1-73-22-13 33-20-1-12-2-22-16-8 42-24-96-57-1-34-53-34-37-22 4-7-84-49-42 24-30-17v-48l-82-46-33-13-56-27-2 30h-6l-40-22-199 111 27 14-3 60 49 26-37 22 2 34 32 17-33 21 1 24 14 10 1 25-75 34z" />
                    <path id="earth" data-title="Earth Block" data-desc="35 Units Available" data-block="earth"
                        data-slidecategory="earth" class="s0"
                        d="m1506 1442l-344-199 63-35 36 20 3-70-27-16 1-26 36-21-37-21 1-32 23-13-48-29-2-58-19-15 149-87 2-58-2-139 8-11 110-65 21 14 116-60 538 313-28 20 4 54-47 23 24 13 3 34-38 19 35 22v25l-20 11-3 45-84-49-7 4-29-16-54-27-2 30-45-21-199 109 27 16-3 59 47 26-35 21-1 32 34 18-34 21 1 9-147 83-1 21-10 7-9-4z" />
                    <path id="water" data-title="Water Block" data-desc="18 Units Available" data-block="water_wind"
                        data-slidecategory="water_wind" class="s0"
                        d="m990 840l-8-262-80-46 71-72 35 18 94-55-13-12 119-69 15 10 54-27 2 18 39-22 266 153-30 16 3 49-80 39-23-14-107 65-10 18 1 190-146 90 15 17-4 17z" />
                    <path id="wind" data-title="Wind Block" data-desc="36 Units Available" data-block="water_wind"
                        data-slidecategory="water_wind" class="s0"
                        d="m306 722l-9-165-26-21 2-123-30-13 179-102-5-17 40-22 10 8 12-8-1-20 80-46 12 9 127-64-3-15 39-20 11 8 62-34 439 255-26 17-10-4-114 69 13 11-104 50-28-14-70 75 75 41 7 167-71 43c0 0-0.1 28.3-31 36-30.9 7.7-6 30-6 30l-35 24-27-9-24 13-24-14-51 30 14 15-106 59-324-178-8-31 27-19 8 5 10-5z" />
                </svg>