<svg version="1.2" xmlns="http://www.w3.org/2000/svg" viewBox="0 0 1080 1080" width="1080" height="1080">
	<title>earth_6_svg</title>
	<style>
		.s0 { opacity: .4;fill: #f7b34b } 
	</style>
	<path id="4503" class="s0" d="m441.7 323.5l-0.1 63.6 70.2 21.3 173.3-29.9-2.9-59.1-158.3 12.1z"/>
	<path id="4504" class="s0" d="m684.2 383.3l104.8-23.3-3.6-52.8-104 11z"/>
	<path id="4505" class="s0" d="m789.9 358.6l96.1-6.9 2-52.1-100 6.7z"/>
	<path id="4410" class="s0" d="m810.8 365.4l1.7 67.5 49.6-8.9 5.7-69.3z"/>
	<path id="4409" class="s0" d="m753.6 368.5l1.7 71.5 54.6-7.8-2.2-65.1z"/>
	<path id="4408" class="s0" d="m711.7 380.7l-7 73.5 49.7-6.7 1.4-77.1z"/>
	<path id="4407" class="s0" d="m646.5 388l1 75.3 58.7-8.1 4.3-73.6z"/>
	<path id="4406" class="s0" d="m585.5 397.1l-0.8 79.9 60.5-11.7 4.3-78.6z"/>
	<path id="4405" class="s0" d="m580 486l-107.4-1.2 0.1-88.9 105 3z"/>
	<path id="4310" class="s0" d="m811.1 430.9l6.5 82.6 43.8-3.5 1.8-80.3z"/>
	<path id="4309" class="s0" d="m768.8 435.3l5.1 87.5 45.3-7.9-7.3-85.1z"/>
	<path id="4308" class="s0" d="m712.6 447.8l3.5 68 57.9-4.8-6.6-71z"/>
	<path id="4307" class="s0" d="m670.4 461l5.1 79 51.1-11.7-5.4-73.6z"/>
	<path id="4306" class="s0" d="m613.4 480.1l9 75.3 51.4-15.4-4-76.3z"/>
	<path id="4305" class="s0" d="m603.9 551.1l-114.7-1.8 3.4-69.9 104.9 0.8z"/>
	<path id="4110" class="s0" d="m819.5 490l8.4 98.4 49-12.1-5.4-95.3z"/>
	<path id="4109" class="s0" d="m777.4 506.3l44.3-13.8 5.7 99-44.6 7.4z"/>
	<path id="4108" class="s0" d="m723.8 518l6.2 91.6 52.8-9.6-6.9-92.3z"/>
	<path id="4107" class="s0" d="m672.2 526l0.7 96.3 56.5-12.9-3.5-94.2z"/>
	<path id="4106" class="s0" d="m607.5 540l1.4 105 60-14.6-0.8-100z"/>
	<path id="4105" class="s0" d="m540 555.5v110.2l66.8-12.1-0.8-110.6z"/>
</svg>