<svg version="1.2" xmlns="http://www.w3.org/2000/svg" viewBox="0 0 1080 1080" width="1080" height="1080">
	<title>earth_8</title>
	<style>
		.s0 { fill: #f7b34b } 
	</style>
	<path id="4101" class="s0" d="m433 649l1-113 73 15-9 111z"/>
	<path id="4102" class="s0" d="m369 523l-7 113 67 16 5-115z"/>
	<path id="4103" class="s0" d="m307 508l1 113 56 14 6-116z"/>
	<path id="4104" class="s0" d="m249 496l-4 102 62 22 3-112z"/>
	<path id="4301" class="s0" d="m430 459v72l87 22 3-81z"/>
	<path id="4302" class="s0" d="m364 450l-1 68 66 16v-73z"/>
	<path id="4303" class="s0" d="m303 441l-3 63 61 14 2-67z"/>
	<path id="4304" class="s0" d="m231 423v65l69 17 2-65z"/>
	<path id="4401" class="s0" d="m430 382v72l87 22 3-81z"/>
	<path id="4402" class="s0" d="m364 373l-1 68 66 16v-73z"/>
	<path id="4403" class="s0" d="m303 364l-3 63 61 14 2-67z"/>
	<path id="4404" class="s0" d="m231 346v65l69 17 2-65z"/>
	<path id="4501" class="s0" d="m352 292l-3 70 170 19 2-74z"/>
	<path id="4502" class="s0" d="m210 279l1 64 136 16 3-66z"/>
</svg>