<svg version="1.2" xmlns="http://www.w3.org/2000/svg" viewBox="0 0 1080 1080" width="1080" height="1080">
	<title>earth_2_svg</title>
	<style>
		.s0 { fill: #f7b34b } 
	</style>
	<path id="3502" class="s0" d="m547 348l90 4 135-10 3 55-135 17-95-15z"/>
	<path id="3501" class="s0" d="m774 397l112-15v-50l-113 11z"/>
	<path id="4404" class="s0" d="m547 401l91 13 74-7 1 72-75 10-91-21z"/>
	<path id="4403" class="s0" d="m714 482l52-9-2-75-53 8z"/>
	<path id="4402" class="s0" d="m767 471l47-5 2-73-51 7z"/>
	<path id="4401" class="s0" d="m816 461l59-15-1-59-58 7z"/>
	<path id="4304" class="s0" d="m547 472l4 68 91 20 70-17-1-62-72 12z"/>
	<path id="4303" class="s0" d="m713 544l52-12v-61l-53 9z"/>
	<path id="4302" class="s0" d="m767 531l48-10-3-59-48 9z"/>
	<path id="4302" class="s0" d="m817 520l56-12 1-61-60 13z"/>
	<path id="4104" class="s0" d="m648 559l59-13v109l-51 15z"/>
	<path id="4103" class="s0" d="m709 635l50-18 2-83-53 12z"/>
	<path id="4102" class="s0" d="m764 622l44-13 1-86-48 11z"/>
	<path id="4101" class="s0" d="m811 609l45-9-2-87-44 10z"/>
</svg>