<svg version="1.2" xmlns="http://www.w3.org/2000/svg" viewBox="0 0 1080 1080" width="1080" height="1080">
	<title>earth_1_svg</title>
	<style>
		.s0 { fill: #f7b34b } 
	</style>
	<path id="4502" class="s0" d="m590 266l1 79-276 4 1-83z"/>
	<path id="4501" class="s0" d="m591 346l272-3-1-79-272 3z"/>
	<path id="4404" class="s0" d="m478 348l1 98-145 2-1-98z"/>
	<path id="4403" class="s0" d="m481 446l108 1 2-101h-113z"/>
	<path id="4402" class="s0" d="m591 447h112l-2-102-109 1z"/>
	<path id="4401" class="s0" d="m705 447l145-1-5-101h-143z"/>
	<path id="4303" class="s0" d="m479 535l112-2-2-86h-112z"/>
	<path id="4304" class="s0" d="m334 449v87l142-1 3-86z"/>
	<path id="4302" class="s0" d="m594 530l108 3 2-86-114 2z"/>
	<path id="4301" class="s0" d="m706 533l142-4-4-81-140-1z"/>
	<path id="4104" class="s0" d="m362 533l-3 158 119-1 1-158z"/>
	<path id="4103" class="s0" d="m480 689l111 1-2-158h-110z"/>
	<path id="4102" class="s0" d="m591 690l115-2-3-155-114 1z"/>
	<path id="4101" class="s0" d="m705 688l114 1-1-157-115 1z"/>
</svg>