<svg version="1.2" xmlns="http://www.w3.org/2000/svg" viewBox="0 0 1080 1080" width="1080" height="1080">
	<title>earth_4</title>
	<style>
		.s0 { fill: #f7b34b } 
	</style>
	<path id="4503" class="s0" d="m188 270l-1 57 123 17-2-64z"/>
	<path id="4504" class="s0" d="m308 346l122 15-1-70-121-10z"/>
	<path id="4505" class="s0" d="m429 361l132 16 1-75-133-11z"/>
	<path id="4410" class="s0" d="m501 377l3 92 62 7-4-93z"/>
	<path id="4409" class="s0" d="m442 366v85l58 14-1-88z"/>
	<path id="4408" class="s0" d="m378 363l-2 76 63 13-3-86z"/>
	<path id="4407" class="s0" d="m318 356l-1 72 59 11-1-75z"/>
	<path id="4406" class="s0" d="m263 342l1 79 50 9v-80z"/>
	<path id="4405" class="s0" d="m263 421l-64-14 2-72 61 7z"/>
	<path id="4310" class="s0" d="m501 466l3 92 62 7-4-93z"/>
	<path id="4309" class="s0" d="m442 455v85l58 14-1-88z"/>
	<path id="4308" class="s0" d="m378 452l-2 76 63 13-3-86z"/>
	<path id="4307" class="s0" d="m318 445l-1 72 59 11-1-75z"/>
	<path id="4306" class="s0" d="m263 431l1 79 50 9v-80z"/>
	<path id="4305" class="s0" d="m263 510l-64-14 2-72 61 7z"/>
	<path id="4110" class="s0" d="m522 560l1 120 72 20v-126z"/>
	<path id="4109" class="s0" d="m448 540l73 20-1 107-71-13z"/>
	<path id="4108" class="s0" d="m383 529l2 103 57 20 2-109z"/>
	<path id="4107" class="s0" d="m321 518l2 88 52 23 5-100z"/>
	<path id="4106" class="s0" d="m269 510l2 86 47 20 2-98z"/>
	<path id="4105" class="s0" d="m215 500l2 76 52 22-1-86z"/>
</svg>