<svg version="1.2" xmlns="http://www.w3.org/2000/svg" viewBox="0 0 1080 1080" width="1080" height="1080">
	<title>fire_4</title>
	<style>
		.s0 { fill: #f7b34b } 
	</style>
	<path id="3502" class="s0" d="m612 245l-3 94 192-39v-81z"/>
	<path id="3401" class="s0" d="m697 322v96l-103 25-54-15v-100.1l62 12.1z"/>
	<path id="3402" class="s0" d="m699 416l89-23-2-41-38-9v-32l-50 10z"/>
	<path id="3301" class="s0" d="m545.1 430.3l-0.1 91.7 49 18 104-27v-96l-96 26z"/>
	<path id="3302" class="s0" d="m701 512l86-31v-36l-39-9 1-33-49 14z"/>
	<path id="3201" class="s0" d="m545 525v98l57 24 92-43-5-90-90 29z"/>
	<path id="3202" class="s0" d="m696 603l77-25-4-90-77 26z"/>
	<path id="3101" class="s0" d="m598 649l112-47 3 63-72 34-43-23z"/>
	<path id="3102" class="s0" d="m717 657l49-28 1-43-54 15z"/>
</svg>