<svg version="1.2" xmlns="http://www.w3.org/2000/svg" viewBox="0 0 1706 990" width="1706" height="990">
	<title>featured</title>
	<style>
		.s0 { opacity: .45;fill: #f7b34b } 
	</style>
	<path id="Layer 1" class="s0" d="m38 436l1-10 27-6-1-104-19-15 112-33 25-23 92 17 6 13 25-9 134 27 1 18 72 17-7 10 6 99-55 19 1 46-34 12z"/>
	<path id="Layer 2" class="s0" d="m601 551v-29h-9l2-52 13-3-1-13-18-3-2-36 33-12 4-16 20 5 46-19 15 3-2 11 29 9 10-4 6 9 8-8-1-11 18-1 14 3 3 16 76 11 3 15 36 12-4 34-79 30 1 10-13 5v9l-47 27-11-2 11 31z"/>
	<path id="Layer 3" class="s0" d="m772 658v-68l-11-4 1-36 48-24 1-12 79-41 34 4 26-15 99 22 26 1 2 10h11l44 12-8 6-3 89-62 38-2 119-34 20-247-57 6-58z"/>
	<path id="Layer 4" class="s0" d="m1184 572l32 3-1-10 14-6 19 3v15l27 6-1 10 20-10 2 11 16 4-31 16 1 25-28 17-10 9 11 5-1 37 28 5v7l-13 10-2 40 14 5-14 11 11 3 1 12-46 29-149-34v-36l-9-2 2-75-9-3-1-38-12-2z"/>
	<path id="Layer 5" class="s0" d="m1278 840v-51l-11-5 14-10-15-5 1-41 14-10 1-5-28-7v-38l-10-4 37-24 1-27 30-15 11 2 55-29 35 6 17-12 3 5 5 1 15-8 38 8 7-4 21 3 1 14 29-9 2 13 18 4 6-5 33 5 2 16 9-1 50 15-18 13 1 7 10-2 2 19-17 12 1 12 15 3 5 18-18 9v10l14 4 3 14-14 8-3 7 1 31-134 104-15 1z"/>
</svg>