<svg version="1.2" xmlns="http://www.w3.org/2000/svg" viewBox="0 0 1080 1080" width="1080" height="1080">
	<title>water_wind_8</title>
	<style>
		.s0 { opacity: .41;fill: #f7b34b } 
		.s1 { fill: #f7b34b } 
	</style>
	<path id="5502" class="s0" d="m861.5 398.8l2.9 52.7 77.6-17.5v-56z"/>
	<path id="5501" class="s0" d="m609.3 396l-2.8 52.1 185.5 27 72.1-22.7-1.1-54.4-73.7 13.1z"/>
	<path id="5404" class="s0" d="m896.4 443.2l-2.8 60.8 39.9-17.8 12.2-56.9z"/>
	<path id="5403" class="s0" d="m860 453.8l-0.2 61 35.9-10.2-0.7-60.6z"/>
	<path id="5402" class="s0" d="m830.8 461.2l-1.1 61.2 30.9-8.5-0.6-60.9z"/>
	<path id="5401" class="s0" d="m741.8 465.9l-1.2 68.4 48.1 5.7 35.8-11.6-3.5-64.4-31.9 11.8z"/>
	<path id="5304" class="s0" d="m896.6 500.8l0.2 53.8 34.7-14.6 4.5-52z"/>
	<path id="5303" class="s0" d="m861.6 515l0.7 53.2 34.7-13.9-1-54.3z"/>
	<path id="5302" class="s0" d="m832.7 525.3l2.3 55.3 29.1-10.6-1.1-56z"/>
	<path id="5301" class="s0" d="m747.9 535.3l-4.5 62.2 50.4 6.5 41.1-20.9-1.9-57.1-38.9 14z"/>
	<path id="5204" class="s0" d="m897.1 554.1l7.4 57.4 19-9.8 4.5-57.7z"/>
	<path id="5203" class="s0" d="m868.2 574.5l3.8 51.7 28.8-11.6-2.8-56.6z"/>
	<path id="5202" class="s0" d="m832.3 585l2.3 55.7 37.4-15-2-51.7z"/>
	<path id="5201" class="s0" d="m792.9 601.9l2.5 69.2 40.1-20.7-3.5-64.4z"/>
	<path id="6101" class="s1" d="m312 590l55 7-6 96-45-5z"/>
	<path id="6102" class="s1" d="m259 578l53 12-2 101-53-12z"/>
	<path id="6103" class="s1" d="m210 568l55 11-4 102-48-18z"/>
	<path id="6104" class="s1" d="m169 558v84l42 18 2-90z"/>
	<path id="6105" class="s1" d="m127 547l43 11 1 89-43-12z"/>
	<path id="6301" class="s1" d="m311 521.3l55 5.4-6 74.3-45-3.9z"/>
	<path id="6302" class="s1" d="m258 512l53 9.3-2 78.2-53-9.3z"/>
	<path id="6303" class="s1" d="m209 504.3l55 8.5-4 78.9-48-13.9z"/>
	<path id="6304" class="s1" d="m168 496.5v65l42 14 2-69.7z"/>
	<path id="6305" class="s1" d="m126 488l43 8.5 1 68.9-43-9.3z"/>
	<path id="6401" class="s1" d="m316 460.3l55 5.4-6 74.3-45-3.9z"/>
	<path id="6402" class="s1" d="m263 451l53 9.3-2 78.2-53-9.3z"/>
	<path id="6403" class="s1" d="m214 443.3l55 8.5-4 78.9-48-13.9z"/>
	<path id="6404" class="s1" d="m173 435.5v65l42 14 2-69.7z"/>
	<path id="6405" class="s1" d="m131 427l43 8.5 1 68.9-43-9.3z"/>
	<path id="6501" class="s1" d="m378 410l-4 54-130-20 2-44z"/>
	<path id="6502" class="s1" d="m243 443l-80-11 2-41 81 8z"/>
	<path id="6503" class="s1" d="m108 383l57 8-2 42-53-5z"/>
</svg>