<svg version="1.2" xmlns="http://www.w3.org/2000/svg" viewBox="0 0 1080 1080" width="1080" height="1080">
	<title>water_wind_6</title>
	<style>
		.s0 { fill: #f7b34b } 
	</style>
	<path id="5502" class="s0" d="m310 363l-1 61 166 31 104-31v-56l-102 17z"/>
	<path id="5501" class="s0" d="m171 343l-1 66 138 23 2-70z"/>
	<path id="5404" class="s0" d="m378 444l-1 88 97 19 2-92z"/>
	<path id="5403" class="s0" d="m317 434l-5 80 64 19 2-87z"/>
	<path id="5402" class="s0" d="m253 424l1 80 56 12 4-81z"/>
	<path id="5401" class="s0" d="m182 411l5 75 65 17v-79z"/>
	<path id="5304" class="s0" d="m379 534l3 78 93 32-1-91z"/>
	<path id="5303" class="s0" d="m314 518v79l65 18-1-81z"/>
	<path id="5302" class="s0" d="m253 506l2 68 55 20v-74z"/>
	<path id="5301" class="s0" d="m189 489l-1 68 64 20v-70z"/>
	<path id="5204" class="s0" d="m368 616v78l91 35 2-86z"/>
	<path id="5203" class="s0" d="m326 604l-7 70 46 19 2-76z"/>
	<path id="5202" class="s0" d="m254 581l-2 64 62 29 7-73z"/>
	<path id="5201" class="s0" d="m205 564l-1 72 42 13 5-72z"/>
	<path id="5104" class="s0" d="m375 702l-4 62 58 24 19-61z"/>
	<path id="5103" class="s0" d="m312 678l-10 54 49 23 12-59z"/>
	<path id="5102" class="s0" d="m250 653l-7 66 49 21 13-62z"/>
	<path id="5101" class="s0" d="m205 641l-10 55 41 16 10-57z"/>
	<path id="6106" class="s0" d="m695 540l51-16-2 107-50 20z"/>
	<path id="6107" class="s0" d="m790 507v101l-40 15-3-99z"/>
	<path id="6108" class="s0" d="m832 496l5 94-38 14-7-94z"/>
	<path id="6109" class="s0" d="m871 482l-1 103-27 8-8-97z"/>
	<path id="6110" class="s0" d="m906 471l-1 88-33 20-1-94z"/>
	<path id="6306" class="s0" d="m688 467l-1 73 61-19 1-71z"/>
	<path id="6307" class="s0" d="m751 520l44-13v-69l-45 11z"/>
	<path id="6308" class="s0" d="m837 428l-1 68-43 13 2-71z"/>
	<path id="6309" class="s0" d="m874 418l1 65-41 16 4-71z"/>
	<path id="6310" class="s0" d="m917 408v60l-37 11-6-62z"/>
	<path id="6406" class="s0" d="m686 404l-1 73 61-19 1-71z"/>
	<path id="6407" class="s0" d="m749 457l44-13v-69l-45 11z"/>
	<path id="6408" class="s0" d="m835 365l-1 68-43 13 2-71z"/>
	<path id="6409" class="s0" d="m872 355l1 65-41 16 4-71z"/>
	<path id="6410" class="s0" d="m915 345v60l-37 11-6-62z"/>
	<path id="6506" class="s0" d="m873 315l2 38 50-4v-42z"/>
	<path id="6505" class="s0" d="m782 331l3 45 90-14-2-47z"/>
	<path id="6504" class="s0" d="m690 339l91-10 5 49-95 23z"/>
</svg>