<svg version="1.2" xmlns="http://www.w3.org/2000/svg" viewBox="0 0 1080 1080" width="1080" height="1080">
	<title>water_wind_4</title>
	<style>
		.s0 { fill: #f7b34b } 
	</style>
	<path id="6106" class="s0" d="m558 759v-130l76 16-4 131z"/>
	<path id="6107" class="s0" d="m491 609l-0.8 128.2 65.1 18.9 1.7-128.1z"/>
	<path id="6108" class="s0" d="m430 591l1 110 56.8 17.9 1.2-108.9z"/>
	<path id="6109" class="s0" d="m373 678l55.4 23.1 1.6-114.1-58-12z"/>
	<path id="6110" class="s0" d="m321 667l49 18 2-111-55-21z"/>
	<path id="6306" class="s0" d="m554 553v71l86 21v-76z"/>
	<path id="6307" class="s0" d="m486 534l3 72 64 20v-74z"/>
	<path id="6308" class="s0" d="m427 522l-1 69 62 17-2-73z"/>
	<path id="6309" class="s0" d="m369 507l-1 64 56 19 1-66z"/>
	<path id="6310" class="s0" d="m302 489l4 62 62 19v-62z"/>
	<path id="6406" class="s0" d="m554 479v71l86 21v-76z"/>
	<path id="6407" class="s0" d="m486 460l3 72 64 20v-74z"/>
	<path id="6408" class="s0" d="m427 448l-1 69 62 17-2-73z"/>
	<path id="6409" class="s0" d="m369 433l-1 64 56 19 1-66z"/>
	<path id="6410" class="s0" d="m302 415l4 62 62 19v-62z"/>
	<path id="6506" class="s0" d="m546 393l1 69 76 12 70-12-3-70-71 12z"/>
	<path id="6505" class="s0" d="m547 466l-137-25-3-67 140 16z"/>
	<path id="6504" class="s0" d="m282 356l3 58 123 23-2-63z"/>
</svg>