<svg version="1.2" xmlns="http://www.w3.org/2000/svg" viewBox="0 0 1080 1080" width="1080" height="1080">
	<title>water_wind_5</title>
	<style>
		.s0 { opacity: .35;fill: #f7b34b } 
	</style>
	<path id="6106" class="s0" d="m860 687l-0.4-112.9 76.4-1.1 1.5 111.8z"/>
	<path id="6107" class="s0" d="m778.4 575.7l1.4 107.3 79.5-1.9 0.7-106.1z"/>
	<path id="6108" class="s0" d="m698.4 575.3l3.6 109.7 77.8 0.9 1.2-108.9z"/>
	<path id="6109" class="s0" d="m616.9 687.9l77.5 3.2 1.6-114.1-81.6-4.1z"/>
	<path id="6110" class="s0" d="m532.6 689.8l79.4-1.8 2-111-79.9-2.3z"/>
	<path id="6306" class="s0" d="m856.6 515.4l0.7 57.5 77.7-1.6 1-56.3z"/>
	<path id="6307" class="s0" d="m780.5 513.3l-0.5 62.9 78.3-2.7-2.3-61.5z"/>
	<path id="6308" class="s0" d="m699.2 514.2l0.3 59.2h79.1l0.4-59.4z"/>
	<path id="6309" class="s0" d="m615.6 515.3l1 58.8 80.8-1.7 0.6-57.4z"/>
	<path id="6310" class="s0" d="m513.9 515.2l1.1 58.8 99 2v-62z"/>
	<path id="6406" class="s0" d="m863 448l-0.6 60.9 75-0.5-2.3-64.5z"/>
	<path id="6407" class="s0" d="m778 448l0.6 63.3 81.3-0.1-0.9-64.2z"/>
	<path id="6408" class="s0" d="m699.2 449.3l-0.4 60.5 79.3-2.5-0.1-57.3z"/>
	<path id="6409" class="s0" d="m614.3 447.3l0.5 63.6 82.2-0.7-1-60.2z"/>
	<path id="6410" class="s0" d="m510.9 445.1l2.3 68.5 98.8-5.6v-62z"/>
	<path id="6506" class="s0" d="m855 383.7l-0.2 58.6 81.5 0.8-0.4-58.6z"/>
	<path id="6505" class="s0" d="m852 444.5l-153.3 3.1 1.1-65 151.5 1.5z"/>
	<path id="6504" class="s0" d="m499.3 383.8l-2.7 61 196.8 0.8 1.6-58.6z"/>
</svg>