<svg version="1.2" xmlns="http://www.w3.org/2000/svg" viewBox="0 0 1080 1080" width="1080" height="1080">
	<title>earth_3_svg</title>
	<style>
		.s0 { fill: #f7b34b } 
	</style>
	<path id="4504" class="s0" d="m700 306l-1 51 168 3v-52z"/>
	<path id="4404" class="s0" d="m699 430l155 2-3-71-152-2z"/>
	<path id="4304" class="s0" d="m701 503l150 5 2-76-153-2z"/>
	<path id="4104" class="s0" d="m702 602l141 2 1-100-146-2z"/>
	<path id="4510" class="s0" d="m205 319l153 1 1 57-149 4z"/>
	<path id="4410" class="s0" d="m220 387l2 81 135.9 0.9 1.1-79.9z"/>
	<path id="4310" class="s0" d="m221 537l137.6 6.9 0.4-74.9-136-2z"/>
	<path id="4110" class="s0" d="m226 645l154 3-2.7-108h-155.3z"/>
</svg>