<svg version="1.2" xmlns="http://www.w3.org/2000/svg" viewBox="0 0 1080 1080" width="1080" height="1080">
	<title>earth_6_svg</title>
	<style>
		.s0 { opacity: .55;fill: #f7b34b } 
	</style>
	<path id="4503" class="s0" d="m278.3 404l0.5 54.3 205.8 3.5 0.1-60z"/>
	<path id="4504" class="s0" d="m488.4 450.2l168.5-2.1-1-63.2-165.7 5.3z"/>
	<path id="4505" class="s0" d="m659.1 440l189.6-2.2-0.9-63.5-190.6 6.9z"/>
	<path id="4410" class="s0" d="m730.2 444.8l0.6 70 98.8-5.1-2.4-70.1z"/>
	<path id="4409" class="s0" d="m641.5 450.1l-0.3 68.2 84.3 0.4 2.2-74.4z"/>
	<path id="4408" class="s0" d="m567.8 453.4l2.2 67.4 79.7 3.3 3-72.1z"/>
	<path id="4407" class="s0" d="m479.6 463.1l2.6 64.5 85.8-0.7 1.1-63.9z"/>
	<path id="4406" class="s0" d="m399.8 462.1l2.9 64.1 79.6-4.4-2.1-60.1z"/>
	<path id="4405" class="s0" d="m400.6 520.4l-86-0.8 0.1-62 84 2.1z"/>
	<path id="4310" class="s0" d="m731.6 516.3l3.3 71.1 80.8-0.7 0.3-68.7z"/>
	<path id="4309" class="s0" d="m641.8 522.2l1.2 57.7 92.1 0.6-0.7-59.5z"/>
	<path id="4308" class="s0" d="m560.7 523.1l4.9 59.9 80-2.6-2.4-60z"/>
	<path id="4307" class="s0" d="m480.5 523l2.2 57 85.4 0.3 0.1-57.1z"/>
	<path id="4306" class="s0" d="m400.7 521.4l1.2 59.6 78.8 1.5 0.6-60.9z"/>
	<path id="4305" class="s0" d="m399.8 578.3l-80.6 1.6-5.5-61.3 84.1 0.6z"/>
	<path id="4110" class="s0" d="m732 579l7.5 110.6 76.4 0.4-1.7-113.1z"/>
	<path id="4109" class="s0" d="m649.7 579.2l81.4-0.6 4.9 109.4-85.5-1.9z"/>
	<path id="4108" class="s0" d="m567.6 577.5l1 105.7 78.3 0.2-1.4-104.6z"/>
	<path id="4107" class="s0" d="m483.2 578.7l2 102.7 79.9 1.1 0.3-102.7z"/>
	<path id="4106" class="s0" d="m405 580.8l-1.4 99.4 80.5-2.3-1-97.3z"/>
	<path id="4105" class="s0" d="m321.5 579.5l1.5 93.1 78.2 2.8-1.4-93.6z"/>
</svg>