<svg version="1.2" xmlns="http://www.w3.org/2000/svg" viewBox="0 0 1080 1080" width="1080" height="1080">
	<title>earth_3_svg</title>
	<style>
		.s0 { fill: #f7b34b } 
	</style>
	<path id="4504" class="s0" d="m664 376l-1 46.9 168 2.8v-47.9z"/>
	<path id="4404" class="s0" d="m663 490l155 1.9-3-65.3-152-1.9z"/>
	<path id="4304" class="s0" d="m665 557.1l150 4.6 2-69.8-153-1.9z"/>
	<path id="4104" class="s0" d="m666 648.2l141 1.8 1-91.9-146-1.9z"/>
	<path id="4510" class="s0" d="m240 411l153 0.9 1 48.6-149 3.5z"/>
	<path id="4410" class="s0" d="m255 469.1l2 69.2 135.9 0.8 1.1-68.3z"/>
	<path id="4310" class="s0" d="m256 597.2l137.6 5.9 0.4-64-136-1.7z"/>
	<path id="4110" class="s0" d="m261 689.4l154 2.6-2.7-92.2h-155.3z"/>
</svg>