<svg version="1.2" xmlns="http://www.w3.org/2000/svg" viewBox="0 0 1080 1080" width="1080" height="1080">
	<title>earth_5_svg</title>
	<style>
		.s0 { fill: #f7b34b } 
	</style>
	<path id="4503" class="s0" d="m187.3 303.9l0.6 77.9 257.1 5.1 0.1-86.1z"/>
	<path id="4504" class="s0" d="m447.1 390.3l201.9 0.7-2.5-84.9-197-1.8z"/>
	<path id="4505" class="s0" d="m652.9 388.6l203.1-4.6 1-75-206.6-4.7z"/>
	<path id="4410" class="s0" d="m756.8 379.4l4.3 99.6 95.9-0.5-3-100.5z"/>
	<path id="4409" class="s0" d="m652.1 384.5l-0.4 97.8 105.3 0.5 2.7-106.7z"/>
	<path id="4408" class="s0" d="m548.8 386.3l2.7 96.8 99.6 4.7 3.7-103.4z"/>
	<path id="4407" class="s0" d="m438.7 388.8l3.2 92.5 107.1-1.1 1.5-91.6z"/>
	<path id="4406" class="s0" d="m339 387.3l3.6 92 99.4-6.3-2.5-86.3z"/>
	<path id="4405" class="s0" d="m340 471l-107.4-1.2 0.1-88.9 105 3z"/>
	<path id="4310" class="s0" d="m753.3 465.1l4.1 101.9 101-0.9 0.4-98.7z"/>
	<path id="4309" class="s0" d="m641.2 473.6l1.5 82.8 115 0.9-0.8-85.5z"/>
	<path id="4308" class="s0" d="m540 474.8l6.1 85.9 99.9-3.7-3-86z"/>
	<path id="4307" class="s0" d="m439.8 474.7l2.7 81.7 106.7 0.6 0.2-82z"/>
	<path id="4306" class="s0" d="m340.1 472.3l1.5 85.6 98.4 2.1 0.8-87.3z"/>
	<path id="4305" class="s0" d="m339 554l-100.6 2.3-6.8-87.9 104.9 0.8z"/>
	<path id="4110" class="s0" d="m753.9 555.1l9.3 158.7 95.4 0.5-2.1-162.3z"/>
	<path id="4109" class="s0" d="m651.1 555.3l101.6-0.8 6.1 157-106.8-2.9z"/>
	<path id="4108" class="s0" d="m548.5 552.9l1.3 151.6 97.7 0.3-1.6-150.1z"/>
	<path id="4107" class="s0" d="m443.2 554.7l2.5 147.2 99.7 1.6 0.5-147.3z"/>
	<path id="4106" class="s0" d="m345.6 557.6l-1.8 142.6 100.5-3.2-1.2-139.6z"/>
	<path id="4105" class="s0" d="m241.3 555.8l1.9 133.6 97.6 4-1.8-134.4z"/>
</svg>