<svg version="1.2" xmlns="http://www.w3.org/2000/svg" viewBox="0 0 1080 1080" width="1080" height="1080">
	<title>earth_1_svg</title>
	<style>
		.s0 { fill: #f7b34b } 
	</style>
	<path id="4502" class="s0" d="m596.5 404.4l0.7 53.5-187.2 2.7 0.7-56.2z"/>
	<path id="4501" class="s0" d="m597.2 458.6l184.4-2-0.7-53.6-184.4 2z"/>
	<path id="4404" class="s0" d="m520.5 460l0.7 66.4-98.3 1.4-0.7-66.5z"/>
	<path id="4403" class="s0" d="m522.6 526.4l73.2 0.7 1.4-68.5h-76.7z"/>
	<path id="4402" class="s0" d="m597.2 527.1h75.9l-1.3-69.2-74 0.7z"/>
	<path id="4401" class="s0" d="m674.5 527.1l98.3-0.7-3.4-68.5h-97z"/>
	<path id="4303" class="s0" d="m521.2 586.8l76-1.4-1.4-58.3h-75.9z"/>
	<path id="4304" class="s0" d="m422.9 528.5v59l96.3-0.7 2-58.3z"/>
	<path id="4302" class="s0" d="m599.2 583.4l73.2 2 1.4-58.3-77.3 1.4z"/>
	<path id="4301" class="s0" d="m675.1 585.4l96.3-2.7-2.7-54.9-94.9-0.7z"/>
	<path id="4104" class="s0" d="m441.9 585.4l-2.1 107.2 80.7-0.7 0.7-107.2z"/>
	<path id="4103" class="s0" d="m521.9 691.2l75.3 0.7-1.4-107.2h-74.6z"/>
	<path id="4102" class="s0" d="m597.2 691.9l77.9-1.4-2-105.1-77.3 0.7z"/>
	<path id="4101" class="s0" d="m674.5 690.5l77.3 0.7-0.7-106.5-78 0.7z"/>
</svg>