<svg version="1.2" xmlns="http://www.w3.org/2000/svg" viewBox="0 0 1080 1080" width="1080" height="1080">
	<title>fire_2_svg</title>
	<style>
		.s0 { fill: #f7b34b } 
	</style>
	<path id="3502" class="s0" d="m243 223l177 8 111.9-13.3 2.4 62.8-113.3 24.5-209-22 36-9zm231 21"/>
	<path id="3402" class="s0" d="m325 310v81l106 14 45-12-1-31-36.9 9.1-0.2-54.7-22.9 2.6z"/>
	<path id="3401" class="s0" d="m322 391l-98-16v-31l39-6v-35l63 7z"/>
	<path id="3302" class="s0" d="m326 405l-1 82 107 20 44-17 1-30-41 4 2-46-8 4z"/>
	<path id="3301" class="s0" d="m326 405l-2 83-99-17v-30l39-14v-32z"/>
	<path id="3202" class="s0" d="m329 501l-1 82 89 22 1-85z"/>
	<path id="3201" class="s0" d="m244 482l86 18-2 83-83-18z"/>
	<path id="3501" class="s0" d="m701 198l79-11v58l-85 19-1-59 8-1z"/>
	<path id="3403" class="s0" d="m753 252l-1 31 24 2-1 29-81 14-1-66z"/>
	<path id="3303" class="s0" d="m694 406l79-29 1-22-23-3v-35l-57 10zm-230-245"/>
</svg>