<svg version="1.2" xmlns="http://www.w3.org/2000/svg" viewBox="0 0 1080 1080" width="1080" height="1080">
	<title>fire_6</title>
	<style>
		.s0 { fill: #f7b34b } 
	</style>
	<path id="3502" class="s0" d="m494 273l-179-25 1 74 178 33z"/>
	<path id="3403" class="s0" d="m416 419l95 23 49-17-4-34-36 3v-41l-20 3-84.5-13.2z"/>
	<path id="3404" class="s0" d="m366 358l-32 8-2 30 78 20 3-72-48-11z"/>
	<path id="3303" class="s0" d="m412 504l98 27 47-21-3-28-9-2-24 5-2-42-106.8-20z"/>
	<path id="3304" class="s0" d="m411 418l-2 88-78-24 1-31 33-11 1-34z"/>
	<path id="3203" class="s0" d="m404 588l96 35 3-88-99-27z"/>
	<path id="3204" class="s0" d="m347 488l-4 82 59 18 2-80z"/>
</svg>