<svg version="1.2" xmlns="http://www.w3.org/2000/svg" viewBox="0 0 1080 1080" width="1080" height="1080">
	<title>fire_7_svg</title>
	<style>
		.s0 { fill: #f7b34b } 
	</style>
	<path id="3501" class="s0" d="m478 248v90l286-3v-88z"/>
	<path id="3401" class="s0" d="m620 428l143-2-1-89h-142z"/>
	<path id="3402" class="s0" d="m620 428h-142v-90h142z"/>
	<path id="3301" class="s0" d="m621 526h143l-2-99-142 1z"/>
	<path id="3302" class="s0" d="m622 528l-144 1-1-101h144z"/>
	<path id="3201" class="s0" d="m622 628l124 1v-103l-126 1z"/>
	<path id="3202" class="s0" d="m494 530l126-2 2 101-127 1z"/>
	<path id="3101" class="s0" d="m624 719l126-1-3-89-125-1z"/>
	<path id="3102" class="s0" d="m624 719h-134l1-90 132 1z"/>
</svg>