<svg version="1.2" xmlns="http://www.w3.org/2000/svg" viewBox="0 0 1080 1080" width="1080" height="1080">
	<title>fire_7_svg</title>
	<style>
		.s0 { fill: #f7b34b } 
	</style>
	<path id="3501" class="s0" d="m503 391l-3.2 68.8 224-6.5 5-68.3z"/>
	<path id="3401" class="s0" d="m611.8 535.6l107.9-4.1 3.2-80.1-110.9 2.6z"/>
	<path id="3402" class="s0" d="m612 533.3l-118.5 1.2-1.4-77.7 118.9-0.8z"/>
	<path id="3301" class="s0" d="m610.4 597.6l110.2-8.7 0.5-57.3-110.1-0.6z"/>
	<path id="3302" class="s0" d="m610.3 596.7l-119.8 2.9 0.1-64.8 121.4-4.8z"/>
	<path id="3201" class="s0" d="m615.8 664.2l105.1-2 3.2-72.5-108.1 0.3z"/>
	<path id="3202" class="s0" d="m509.9 598.3l106.1-2.3 0.6 69.3-106.3 8.5z"/>
	<path id="3101" class="s0" d="m619.9 737.1l101.1-1.8 0.3-73.5-104.3 0.2z"/>
	<path id="3102" class="s0" d="m622 732.2l-109.2 8.7-4-68.7 109.2-6.9z"/>
</svg>