<svg version="1.2" xmlns="http://www.w3.org/2000/svg" viewBox="0 0 1080 1080" width="1080" height="1080">
	<title>fire_8_svg</title>
	<style>
		.s0 { fill: #f7b34b } 
	</style>
	<path id="3502" class="s0" d="m553 243l126 22 155-28v69l-157 36-122-28z"/>
	<path id="3404" class="s0" d="m747 396l-87 25-48-10 2-33 3-46 61 13 72-20z"/>
	<path id="3403" class="s0" d="m751 396l71-18-1-30-30-6 1-24-44 8z"/>
	<path id="3304" class="s0" d="m748 487l-90 31-46-18 1-87 48 7 89-22z"/>
	<path id="3303" class="s0" d="m750 487l71-25v-31l-30-8 1-37-39 10z"/>
	<path id="3204" class="s0" d="m614 504l3 80 50 18 69.7-28.1-2.1-77.9-68.6 25z"/>
	<path id="3203" class="s0" d="m738 494l4 76 66-23-3-79z"/>
	<path id="3103" class="s0" d="m800 553l-2.3 75.8-54.1 16.5-1.6-73.3z"/>
	<path id="3104" class="s0" d="m737.4 576l-71.4 30 5 80 65.9-35.7z"/>
</svg>