<svg version="1.2" xmlns="http://www.w3.org/2000/svg" viewBox="0 0 1080 1080" width="1080" height="1080">
	<title>fire_3_svg</title>
	<style>
		.s0 { fill: #f7b34b } 
	</style>
	<path id="3502" class="s0" d="m347 410l226.5 7.6-0.6 64.5-223.7-4z"/>
	<path id="3403" class="s0" d="m465.7 562.8l-3.7-82.8 114.7 2.2 5.8 79.9z"/>
	<path id="3404" class="s0" d="m352 477l116 3-1.9 77.6-114.2-8.5z"/>
	<path id="3303" class="s0" d="m468.3 624.6l110.5 3.7 3.4-68.4-117.2 0.1z"/>
	<path id="3304" class="s0" d="m354.8 549.8l113.2 3.2-0.1 68.7-112.7-8.6z"/>
	<path id="3203" class="s0" d="m466.8 685l105 11.1 5.4-68.7-108.4-4.3z"/>
	<path id="3204" class="s0" d="m357.6 612.4l4.3 57.8 108.2 10.1-1.1-62.3z"/>
	<path id="3103" class="s0" d="m373.7 731.5l94.5 9.3 0.8-61.8-100.6-5.5z"/>
	<path id="3104" class="s0" d="m470.4 746l104 8.2-0.5-61.2-103.9-12z"/>
</svg>