<svg version="1.2" xmlns="http://www.w3.org/2000/svg" viewBox="0 0 1080 1080" width="1080" height="1080">
	<title>fire_3_svg</title>
	<style>
		.s0 { fill: #f7b34b } 
	</style>
	<path id="3502" class="s0" d="m306 198h316l-4 98-312 2z"/>
	<path id="3403" class="s0" d="m465 405l-3-106 155-2 1 107z"/>
	<path id="3404" class="s0" d="m307 299h155l3 108-155-3z"/>
	<path id="3303" class="s0" d="m465 506l151 2 2-103-152 2z"/>
	<path id="3304" class="s0" d="m312 406l155 3-1 98-157-2z"/>
	<path id="3203" class="s0" d="m466 607l130 5v-101.7l-128.2-0.2z"/>
	<path id="3204" class="s0" d="m330 506l2 99 130 3 2-98z"/>
	<path id="3103" class="s0" d="m319.1 688.9l117.9 1.1 2-81-117-5z"/>
	<path id="3104" class="s0" d="m480 693l119 1-5-85-114 2z"/>
</svg>