<svg version="1.2" xmlns="http://www.w3.org/2000/svg" viewBox="0 0 1080 1080" width="1080" height="1080">
	<title>water_wind_1_svg</title>
	<style>
		.s0 { fill: #f7b34b } 
	</style>
	<path id="6101" class="s0" d="m467.2 626.2l-1.7 95.2 80.5-1.6v-94.4z"/>
	<path id="6102" class="s0" d="m387.5 626.2l2.6 105.3 77.1 1.5v-105.2z"/>
	<path id="6103" class="s0" d="m306.2 626.2l1.7 101.4 83.9 2.3-3.4-105.2z"/>
	<path id="6104" class="s0" d="m226.5 627.8l2.6 99.8 79.6 1.5-3.4-100.6z"/>
	<path id="6105" class="s0" d="m144.9 619l-3.9 95.9 78.6 7.8 4.7-94.3z"/>
	<path id="6301" class="s0" d="m468.1 564.3v59.6l72.8 0.8 2.5-60.4z"/>
	<path id="6302" class="s0" d="m385.8 565.1v59.6l81.4 0.7v-60.3z"/>
	<path id="6303" class="s0" d="m307 571.3l-1.7 54.1h81.4l-1.7-53.4z"/>
	<path id="6304" class="s0" d="m224.8 572v53.4l81.4 1.6v-52.6z"/>
	<path id="6305" class="s0" d="m123.4 563.3l-1.7 57.3 103.5 4.7 0.1-57.2z"/>
	<path id="6401" class="s0" d="m466.3 508.6v54.9l78 1.6-1.7-58.1z"/>
	<path id="6402" class="s0" d="m386.7 509.4v57.2l80.5 0.8-0.9-56.5z"/>
	<path id="6403" class="s0" d="m306.2 513.2l-0.9 54.2 81.4 3.9-1.7-57.3z"/>
	<path id="6404" class="s0" d="m225.6 512.5l-1.7 55.7 83.1 3.1v-59.6z"/>
	<path id="6405" class="s0" d="m131.4 500.9l-7.1 60.9 101.1 3.2 1.8-59.6z"/>
	<path id="6503" class="s0" d="m231.6 446.7l-1.5 48-102.1 5.3-1.8-51.9z"/>
	<path id="6502" class="s0" d="m229.9 507l155.9 0.8 0.9-55.7h-156.8z"/>
	<path id="6501" class="s0" d="m387.5 507l157.6-1.5-0.8-52.6-155.9 0.7z"/>
</svg>