<svg version="1.2" xmlns="http://www.w3.org/2000/svg" viewBox="0 0 1080 1080" width="1080" height="1080">
	<title>water_wind_5</title>
	<style>
		.s0 { fill: #f7b34b } 
	</style>
	<path id="6106" class="s0" d="m834 745.3l-0.4-103.8 71-1 1.4 102.8z"/>
	<path id="6107" class="s0" d="m758.2 643l1.4 98.5 73.8-1.7 0.6-97.4z"/>
	<path id="6108" class="s0" d="m684 642.6l3.3 100.8 72.3 0.8 1.1-100z"/>
	<path id="6109" class="s0" d="m608.3 746.1l71.9 2.9 1.6-104.8-75.8-3.8z"/>
	<path id="6110" class="s0" d="m530 747.8l73.8-1.6 1.8-102-74.2-2.1z"/>
	<path id="6306" class="s0" d="m830.9 587.6l0.7 52.8 72.1-1.5 0.9-51.7z"/>
	<path id="6307" class="s0" d="m760.2 585.6l-0.4 57.8 72.6-2.4-2.1-56.5z"/>
	<path id="6308" class="s0" d="m684.7 586.5l0.3 54.4h73.5l0.3-54.6z"/>
	<path id="6309" class="s0" d="m607.1 587.5l0.9 54 75-1.5 0.6-52.8z"/>
	<path id="6310" class="s0" d="m512.7 587.4l1 54 91.9 1.9v-57z"/>
	<path id="6406" class="s0" d="m836.8 525.7l-0.6 56 69.7-0.5-2.1-59.3z"/>
	<path id="6407" class="s0" d="m758 525.6l0.5 58.2 75.4-0.1-0.8-58.9z"/>
	<path id="6408" class="s0" d="m684.7 526.8l-0.3 55.7 73.6-2.4-0.1-52.6z"/>
	<path id="6409" class="s0" d="m605.9 525.1l0.5 58.3 76.3-0.5-0.9-55.4z"/>
	<path id="6410" class="s0" d="m509.9 523l2.2 63 91.7-5.2v-57z"/>
	<path id="6506" class="s0" d="m829.4 466.6l-0.2 53.9 75.7 0.7-0.4-53.9z"/>
	<path id="6505" class="s0" d="m826.6 522.5l-142.4 2.8 1.1-59.7 140.6 1.4z"/>
	<path id="6504" class="s0" d="m499.1 466.7l-2.5 56 182.7 0.8 1.5-53.9z"/>
</svg>