<svg version="1.2" xmlns="http://www.w3.org/2000/svg" viewBox="0 0 1080 1080" width="1080" height="1080">
	<title>water_wind_2_svg</title>
	<style>
		.s0 { opacity: .37;fill: #f7b34b } 
	</style>
	<path id="6101" class="s0" d="m789 540l4.3 139.3 57-22.6-0.5-132z"/>
	<path id="6102" class="s0" d="m728 560l3 136 61.2-19.8-2.8-136.2z"/>
	<path id="6103" class="s0" d="m657 577l9.1 147.4 62-27.2-4.6-137z"/>
	<path id="6104" class="s0" d="m583 598l6 145.1 65.6-28.6-1-135.4z"/>
	<path id="6105" class="s0" d="m500 618l-1 124 77.4-14.4 0.8-128.8z"/>
	<path id="6301" class="s0" d="m795 469l1.9 65.9 72.7-16.4-0.4-66.4z"/>
	<path id="6302" class="s0" d="m730.9 483.6l-0.7 70.6 63.5-14.2 1-70.8z"/>
	<path id="6303" class="s0" d="m662.6 497.5l-0.5 74.7 66.1-17.9 2.4-70.4z"/>
	<path id="6304" class="s0" d="m583.7 513.6l2.3 75.4 76.2-16.8 2-73.4z"/>
	<path id="6305" class="s0" d="m480.2 532.6l-3.5 88 108.3-33-4.6-73z"/>
	<path id="6401" class="s0" d="m795.1 389.6l2.4 66 53.8-10.6-2.1-64.8z"/>
	<path id="6402" class="s0" d="m729 402l-0.9 65.2 67.3-11.1 2-64.2z"/>
	<path id="6403" class="s0" d="m661.4 419.9l-0.7 64 70.1-15.5 0.3-61.7z"/>
	<path id="6404" class="s0" d="m585.8 433.8l0.4 63 75.4-12.6 0.1-64.4z"/>
	<path id="6405" class="s0" d="m478.9 439.8l-2.1 77.3 102.2-15.6 1.1-71.2z"/>
	<path id="6503" class="s0" d="m590 346v62l-98.9 15.8-61.1-14.4-1-68.9 60.2 14.3z"/>
	<path id="6502" class="s0" d="m592.5 417.8l146.2-20.1-1.2-68.3-147 14.9z"/>
	<path id="6501" class="s0" d="m740.5 398.2l143.8-22.2-0.6-61.9-142.5 14z"/>
</svg>