<svg version="1.2" xmlns="http://www.w3.org/2000/svg" viewBox="0 0 1080 1080" width="1080" height="1080">
	<title>water_wind_7</title>
	<style>
		.s0 { fill: #f7b34b } 
	</style>
	<path id="5502" class="s0" d="m667 371l-1 61h270v-56z"/>
	<path id="5501" class="s0" d="m409.3 371l0.3 72.1 251.4-0.1 2-70z"/>
	<path id="5404" class="s0" d="m769 451.6l1 82.4 155.4 0.5 0.3-83.2z"/>
	<path id="5403" class="s0" d="m663 451.5l0.6 88.5h103.4l2-87z"/>
	<path id="5402" class="s0" d="m559.4 446.2l1.1 93.8 100.8-5.9-0.3-84.1z"/>
	<path id="5401" class="s0" d="m419.5 449.3l4.8 90.7h131.1l-1.4-92z"/>
	<path id="5304" class="s0" d="m773.8 540l-3.4 82.2 153.6 6.8-1-91z"/>
	<path id="5303" class="s0" d="m662 540l-1.1 82.5 108.1-0.5-1-81z"/>
	<path id="5302" class="s0" d="m553.6 540l4 84.2 101.6-2.6 1.8-80.6z"/>
	<path id="5301" class="s0" d="m424.2 540l2 77h122.1l3.7-76z"/>
	<path id="5204" class="s0" d="m772 626.7l-2 71.3 151.5 3.8-4.5-70.8z"/>
	<path id="5203" class="s0" d="m662.6 624.1l0.3 75.7 104.1 3.2 2-76z"/>
	<path id="5202" class="s0" d="m556 625.2l1.7 73.9 102.9 1.7-2.6-77.8z"/>
	<path id="5201" class="s0" d="m447.6 616.5l2.4 85.2 108-0.5-4-80.2z"/>
	<path id="5104" class="s0" d="m771.8 700.1l0.9 70.8 139.7 1.7 1.6-66.6z"/>
	<path id="5103" class="s0" d="m663 701.5l4.3 71.4 105.1 1.5-1.4-67.4z"/>
	<path id="5102" class="s0" d="m561.1 699.7l1 76.2 104.4-4.7-3.5-68.2z"/>
	<path id="5101" class="s0" d="m451.2 702.7l-1.8 67.7 110 4.2-0.4-71.6z"/>
</svg>