<svg version="1.2" xmlns="http://www.w3.org/2000/svg" viewBox="0 0 1080 1080" width="1080" height="1080">
	<title>water_wind_1_svg</title>
	<style>
		.s0 { fill: #f7b34b } 
	</style>
	<path id="6101" class="s0" d="m513 580l-2 123 94-2v-122z"/>
	<path id="6102" class="s0" d="m420 580l3 136 90 2v-136z"/>
	<path id="6103" class="s0" d="m325 580l2 131 98 3-4-136z"/>
	<path id="6104" class="s0" d="m232 582l3 129 93 2-4-130z"/>
	<path id="6105" class="s0" d="m138 577l-1 124 92 7 2-122z"/>
	<path id="6301" class="s0" d="m514 500v77l85 1 3-78z"/>
	<path id="6302" class="s0" d="m418 501v77l95 1v-78z"/>
	<path id="6303" class="s0" d="m326 509l-2 70h95l-2-69z"/>
	<path id="6304" class="s0" d="m230 510v69l95 2v-68z"/>
	<path id="6305" class="s0" d="m111 506v74l121 2-2-74z"/>
	<path id="6401" class="s0" d="m512 428v71l91 2-2-75z"/>
	<path id="6402" class="s0" d="m419 429v74l94 1-1-73z"/>
	<path id="6403" class="s0" d="m325 434l-1 70 95 5-2-74z"/>
	<path id="6404" class="s0" d="m231 433l-2 72 97 4v-77z"/>
	<path id="6405" class="s0" d="m118 425l-6 79h118v-77z"/>
	<path id="6503" class="s0" d="m233 351v62l-119 11-4-67z"/>
	<path id="6502" class="s0" d="m236 426l182 1 1-72h-183z"/>
	<path id="6501" class="s0" d="m420 426l184-2-1-68-182 1z"/>
</svg>